PathFileType	4	(X/Y/Z)	OpenSim_Sub02_EMGBaseline_Gyro.trc
DataRate	CameraRate	NumFrames	NumMarkers	Units	OrigDataRate	OrigDataStartFrame	OrigNumFrames
100	100	37	8	m	100	5046	6727
Frame#	Time	torso_imu_offset_imu	pelvis_imu_offset_imu	tibia_r_imu_offset_imu	femur_r_imu_offset_imu	tibia_l_imu_offset_imu	femur_l_imu_offset_imu	toes_r_imu_offset_imu	toes_l_imu_offset_imu
				X1	Y1	Z1	X2	Y2	Z2	X3	Y3	Z3	X4	Y4	Z4	X5	Y5	Z5	X6	Y6	Z6	X7	Y7	Z7	X8		Y8	Z8	

5046	50.45000000	-0.53302083	-0.13186277	-0.10211035	-0.30380121	0.21423870	0.00667220	-0.98349621	-0.60596805	5.12500361	0.22969152	0.15791044	-0.01154704	0.41719376	0.45083415	0.90738918	0.03713376	-0.13909128	0.75263310	-1.39196337	4.70284490	1.64998339	0.04613958	-0.03529472	0.06254763
5047	50.46000000	-0.48816980	-0.10348554	-0.10737810	-0.22622813	0.18342075	-0.00403207	-1.90234528	-0.76154932	5.05756438	0.00634542	0.12791852	-0.12409322	0.39615193	0.45801373	0.92791205	0.08175328	-0.13708636	0.78481439	-1.18054160	4.62048902	1.80426752	0.06795503	-0.02841986	0.04671835
5048	50.47000000	-0.44635086	-0.06973307	-0.10851189	-0.16386415	0.14308193	-0.01032518	-2.44379893	-0.93073266	5.04641626	-0.21832907	0.09924548	-0.26960521	0.42507826	0.45851156	0.95392736	0.12504723	-0.13505177	0.79304435	-1.08503460	4.46254164	1.94547026	0.07255517	-0.03514746	0.05689172
5049	50.48000000	-0.40550378	-0.03882205	-0.10428560	-0.11008090	0.09254218	-0.01242657	-2.42954076	-1.09572417	5.07095785	-0.44900252	0.08603219	-0.45270707	0.46394915	0.47291428	0.97074350	0.18536968	-0.13576269	0.80483208	-0.95486912	4.24474969	2.08992567	0.04540653	-0.03447406	0.08161702
5050	50.49000000	-0.36644153	-0.00991197	-0.09556071	-0.05031864	0.04564475	-0.01499616	-1.76502267	-1.17130880	5.06123960	-0.65128746	0.09568937	-0.63646401	0.44160253	0.48976369	0.98340378	0.28723353	-0.13514336	0.80990069	-0.70060028	3.95130537	2.25198181	0.00918733	-0.03500032	0.11343595
5051	50.50000000	-0.34018384	0.01768182	-0.08528018	0.01085594	0.00063509	-0.01170428	-0.46108643	-1.08760176	5.00809624	-0.78906838	0.12013208	-0.83075063	0.39062711	0.48552758	1.00478828	0.41926618	-0.13289561	0.78960316	-0.31881814	3.66454109	2.47744896	0.01209890	-0.04758705	0.14160281
5052	50.51000000	-0.31491685	0.04402833	-0.07617120	0.05427673	-0.04371861	-0.00037583	1.37968128	-0.71679028	4.94837880	-0.76280989	0.15031394	-1.03886159	0.48996377	0.50679660	1.05245099	0.56307436	-0.12329645	0.76639231	-0.05039467	3.31175725	2.79676722	0.03259018	-0.03755575	0.14109942
5053	50.52000000	-0.28361225	0.07168587	-0.06186803	0.06827812	-0.06087591	0.01509011	3.30045157	-0.09999213	4.81807054	-0.68027719	0.11564429	-1.23883240	0.50587520	0.57442801	1.13456664	0.69111899	-0.10919471	0.72573275	0.04224380	2.81412951	3.00278829	0.01354311	-0.04852397	0.14342375
5054	50.53000000	-0.25809901	0.10374796	-0.04768294	0.09050091	-0.04872675	0.03522362	4.47838531	0.30470653	4.48692540	-0.57320171	-0.07326573	-1.35350606	0.30913906	0.58896984	1.17871244	0.77059644	-0.09684497	0.66455821	-0.03975691	2.36184569	2.93687376	-0.00913362	-0.06245888	0.14913733
5055	50.54000000	-0.22702909	0.15746068	-0.03524859	0.12933525	-0.03705809	0.05175576	4.42835570	0.21316927	4.11982385	-0.31543295	-0.20098811	-1.32376823	0.22369031	0.62823949	1.18078511	0.77396387	-0.06845004	0.60176415	0.14179647	2.08680671	2.86802131	0.00310562	-0.07913477	0.14833666
5056	50.55000000	-0.18465337	0.20757470	-0.02436219	0.15182334	-0.03457414	0.07871395	3.87990225	0.30495041	3.88439220	-0.07747422	-0.15370406	-1.19080128	0.15996358	0.71086545	1.23545313	0.71783696	-0.02669875	0.54489794	0.51352127	1.73091822	2.90794914	0.03752838	-0.09550980	0.13499889
5057	50.56000000	-0.14135104	0.25060902	-0.01080379	0.14048602	-0.03520910	0.11183344	4.00231741	0.75150721	3.47267948	-0.01061715	-0.14210040	-0.97792153	-0.04231527	0.74510420	1.34606650	0.64160531	0.02256491	0.46557195	0.42029143	1.58302903	2.72329676	0.04895859	-0.14739039	0.13634280
5058	50.57000000	-0.10133246	0.28886286	0.00048409	0.12718696	-0.05284195	0.15858679	3.76037384	0.64986912	2.67317715	0.10914546	-0.20138548	-0.63523461	-0.16461100	0.79244876	1.45295137	0.55057282	0.07540875	0.35678438	0.87037974	1.66880015	2.38203795	0.04039937	-0.19358125	0.15613681
5059	50.58000000	-0.06718749	0.31961118	0.00826756	0.11051763	-0.08350421	0.21213166	2.28217848	0.08790945	1.50681057	0.39525031	-0.26534617	-0.22785240	-0.23146036	0.90954237	1.53946977	0.46709429	0.11983960	0.25271029	1.55350449	1.44062374	2.14663894	0.00676456	-0.23804061	0.18958148
5060	50.59000000	-0.03583706	0.34915592	0.01700729	0.09144703	-0.12337045	0.25804107	0.74960961	-0.31400817	0.07263045	0.76489319	-0.30233722	0.10315572	-0.34669281	0.99767712	1.64783067	0.42518839	0.16341436	0.14236521	0.84744944	0.65288715	1.71936865	-0.01651186	-0.30015556	0.25142228
5061	50.60000000	-0.00350501	0.35889852	0.01399003	0.13959963	-0.17267024	0.29489094	-0.27662479	-0.50225577	-1.22747012	1.13564219	-0.30151882	0.30932115	-0.29802202	1.03090889	1.81309004	0.40468328	0.21519121	0.02061024	0.79464665	-0.72975758	0.95406908	-0.03791326	-0.36727403	0.31796501
5062	50.61000000	0.03461859	0.35950912	0.00042983	0.21737158	-0.22994745	0.32309216	-0.78322959	-0.51046287	-2.08396761	1.36815155	-0.25288874	0.42980730	-0.15370625	1.06762818	2.01241592	0.41031910	0.27143581	-0.10446931	1.94291460	-2.24661947	-0.06542033	-0.05345223	-0.47648943	0.38395568
5063	50.62000000	0.07778189	0.38503701	-0.01161649	0.28598354	-0.28280820	0.36247430	-0.74575448	-0.37575000	-2.51799108	1.34195599	-0.15741696	0.57728090	0.03950752	1.12564513	2.19197417	0.47162768	0.31937242	-0.24150652	0.47232256	-3.31978418	-0.93624989	-0.03448681	-0.60336635	0.46605226
5064	50.63000000	0.11834623	0.39966121	-0.01181687	0.40859639	-0.27549839	0.44679691	-0.23737361	-0.38178487	-2.64239458	1.07298150	-0.14940692	0.72370685	0.25337291	1.16277767	2.35541855	0.54000693	0.38150689	-0.37741812	-6.38563872	-4.56721830	-1.44425873	-0.00635265	-0.82002715	0.55971753
5065	50.64000000	0.15987982	0.40238040	-0.01499227	0.64157529	-0.20385262	0.60990632	0.42518018	-0.65819190	-2.48251874	0.91084215	-0.39043038	0.70935334	0.38437160	1.16082857	2.52606402	0.54983749	0.48622238	-0.49579301	-2.16421854	-4.69365025	-2.20963382	-0.00965635	-1.08747529	0.59984575
5066	50.65000000	0.18908263	0.44578106	0.00724583	0.75701522	-0.13147349	0.86827992	0.08339453	-1.49421103	-1.82200958	0.97682104	-0.87551121	0.36722942	0.53197180	1.17275218	2.70157236	0.49455287	0.60451532	-0.58542985	4.36795524	-5.18668596	-1.63196473	0.23245028	-1.51232033	0.61377224
5067	50.66000000	0.19177368	0.49007609	0.07404221	0.41915584	-0.00251016	1.12988937	-1.42675190	-2.20984060	-0.83284942	0.90404393	-1.20677767	-0.40227326	0.67249781	1.14287383	2.86594841	0.40072565	0.66573158	-0.66461735	2.31149159	-2.29510716	0.12814463	0.45944635	-2.15381640	0.68119406
5068	50.67000000	0.18553692	0.51543407	0.14622208	-0.26909534	0.09565012	1.26803034	-0.74019741	-0.67760644	-0.65784010	0.51657410	-1.02227675	-1.21986139	0.71979269	1.11807111	2.95654624	0.34253739	0.65974124	-0.82394899	9.54789315	2.45774233	-0.11287740	0.51000168	-2.94727421	0.77021501
5069	50.68000000	0.16545464	0.52319424	0.18733321	-0.91052284	-0.04829033	1.27199803	2.87732740	1.48524523	-1.59591879	0.33906018	-0.34244210	-1.10433832	0.73965992	1.16232046	2.98371315	0.42375678	0.57380359	-1.12245667	1.83022206	0.28365182	-0.39917426	0.63289654	-3.95082103	0.97156851
5070	50.69000000	0.13221039	0.46645959	0.17337144	-1.21048041	-0.23438379	1.08468691	4.64410255	1.56396077	-2.15708697	0.49477756	-0.16035550	-0.08118748	0.79513125	1.23574954	3.05632893	0.65936060	0.40787267	-1.53361168	-8.63592248	-1.51683098	0.20231494	0.31540855	-4.99359780	1.25881783
5071	50.70000000	0.11174982	0.37798578	0.10913265	-0.95549927	-0.30545037	0.75431119	3.92662890	0.77316956	-2.07898519	0.23732144	-0.96859778	0.75898373	0.78367572	1.39508015	3.18028588	0.94766881	0.25688937	-1.91894397	1.03121459	0.07543809	-0.06411651	0.43605151	-6.09556264	1.46866917
5072	50.71000000	0.13827822	0.28632068	0.02883735	-0.21123752	-0.34212359	0.43239794	3.00985059	0.22365524	-1.94134638	-0.13755345	-1.17764687	1.10564932	0.63713463	1.55847388	3.31477706	1.12843339	0.18555399	-2.18975317	2.18468071	0.12374700	-0.17654841	0.33226252	-7.17840438	1.63232050
5073	50.72000000	0.21541542	0.18369239	-0.02644930	0.47226422	-0.34045600	0.16213742	2.07788950	-0.15040640	-1.84419078	-0.01439551	-0.28852673	0.97489874	0.70442865	1.58524295	3.41026536	1.12053787	0.21295078	-2.37521495	-1.46057266	-0.24793147	-0.08460012	-0.12560373	-8.32669294	1.89615019
5074	50.73000000	0.32600285	0.06682028	-0.05298367	0.84609415	-0.31319514	0.04567064	1.13338178	-0.65949603	-2.08841424	0.16773286	0.28777067	0.32937898	1.31191376	1.57286471	3.36756860	1.09898975	0.29800462	-2.53851139	0.59216357	0.13262750	-0.13567324	-0.35611286	-9.42473309	2.33618784
5075	50.74000000	0.44317780	-0.05012425	-0.03532041	1.03839680	-0.32543305	0.13411241	0.30489174	-0.92722285	-2.22048513	-0.12130182	-0.14029809	-0.49448689	1.82030882	1.60765547	3.19035097	1.06224238	0.32104709	-2.70679450	0.32531349	0.11727998	-0.13046004	-1.19369156	-9.41927419	2.87755044
5076	50.75000000	0.52709769	-0.12611179	0.02731894	1.03704303	-0.32068003	0.27829071	0.20480188	-0.68504271	-1.75760187	-0.49083310	-0.77029631	-1.17881027	1.89844247	1.56258354	2.91324638	0.75990175	0.28212288	-2.85087511	-0.19038216	0.09073570	-0.12540486	-1.90078076	-8.95487989	3.23890477
5077	50.76000000	0.59328381	-0.17016047	0.08701715	0.94605960	-0.21169220	0.36456562	0.36863025	-0.68750958	-1.04269327	-0.29845154	-0.87844541	-1.71134751	2.01622591	1.34161712	2.50602502	0.25084251	0.24742165	-2.91645817	0.32064065	0.19929498	-0.11818176	-1.43745440	-8.29523387	3.24203559
5078	50.77000000	0.65253732	-0.19491460	0.14328235	0.89861608	-0.04252519	0.37655818	-0.24035812	-0.72060997	-0.53352505	0.22957001	-0.66784830	-2.11606194	2.18304839	1.00703298	2.04518167	-0.18858814	0.20963704	-2.89096634	0.08686195	0.14615987	-0.13070336	-0.78065263	-7.26125889	3.07491387
5079	50.78000000	0.71982455	-0.19313502	0.21784307	0.88921357	0.09520232	0.30870202	-1.15381889	-0.69554193	-0.34194001	0.73630486	-0.42757577	-2.19971647	1.91598567	0.59973720	1.62258581	-0.39139680	0.14225319	-2.84963961	0.21504206	0.10306165	-0.14519419	-0.79077421	-6.56139533	2.94584254
5080	50.79000000	0.81013400	-0.19022746	0.29033125	0.91629140	0.12284141	0.17732947	-1.78401006	-0.83556507	-0.42076489	1.05673440	-0.23263986	-1.78050795	1.24772019	0.20940724	1.26065148	-0.32832853	0.00751269	-2.81080173	0.22904393	0.04572239	-0.15720652	-0.78299590	-5.96626192	2.89668283
5081	50.80000000	0.90318420	-0.20227140	0.31663545	0.96815883	0.05005816	0.00547985	-2.14542523	-0.88327829	-0.69229204	1.03942989	-0.21313702	-0.96423351	0.83795008	0.01781624	0.94113403	-0.10564746	-0.14075944	-2.75699386	0.25155334	0.03880615	-0.15422836	-1.76410380	-4.84185661	2.95627652
5082	50.81000000	0.97214333	-0.20612369	0.29585833	1.01362526	-0.06855054	-0.17653838	-2.17841738	-0.72552578	-0.95111144	0.77496353	-0.43699380	-0.29369016	0.85175301	0.04952545	0.65134464	0.12603963	-0.25263182	-2.65007569	0.22993571	0.00411112	-0.14322555	-1.72249813	-3.34130475	2.68575320
